<?xml version="1.0" encoding="UTF-8"?>
<svg xmlns="http://www.w3.org/2000/svg"
     width="420" height="420" viewBox="0 0 360 360">
  <style>
    .cell { fill: #f9f9f9; stroke: #ccc; stroke-width: 0.8; }
    .cell.alt { fill: #e8f0fe; }
    .val { font-family: monospace; font-size: 10px; fill: #333; text-anchor: middle; }
    .kernel { fill: rgba(255,0,0,0.08); stroke: red; stroke-width: 2; }
  </style>

  <!-- Grid background -->
  <rect width="360" height="360" fill="#fff"/>

  <!-- Grid cells and values -->
  <g>
    <!-- 9x9 grid = 81 cells -->
    <!-- Each 40x40 with alternating fills -->
    <!-- Generated below -->
    <!-- Values are static samples (you can randomize with code) -->
    <!-- This version uses hardcoded values between 0 and 1 -->

    <!-- BEGIN: Grid with random values -->
    <!-- You can replace these values with your own -->
    <!-- Loop manually inserted for simplicity -->
    <!-- Example below for 3 rows (repeat for full 9) -->

    <!-- We'll simulate random values -->
    <!-- You can paste the rest using Python if you want true randomness -->

    <!-- Row loop -->
    <!-- This is row 0 -->
    <rect class="cell" x="0" y="0" width="40" height="40"/><text class="val" x="20" y="24">0.32</text>
    <rect class="cell alt" x="40" y="0" width="40" height="40"/><text class="val" x="60" y="24">0.76</text>
    <rect class="cell" x="80" y="0" width="40" height="40"/><text class="val" x="100" y="24">0.41</text>
    <rect class="cell alt" x="120" y="0" width="40" height="40"/><text class="val" x="140" y="24">0.13</text>
    <rect class="cell" x="160" y="0" width="40" height="40"/><text class="val" x="180" y="24">0.58</text>
    <rect class="cell alt" x="200" y="0" width="40" height="40"/><text class="val" x="220" y="24">0.07</text>
    <rect class="cell" x="240" y="0" width="40" height="40"/><text class="val" x="260" y="24">0.89</text>
    <rect class="cell alt" x="280" y="0" width="40" height="40"/><text class="val" x="300" y="24">0.24</text>
    <rect class="cell" x="320" y="0" width="40" height="40"/><text class="val" x="340" y="24">0.67</text>
<!-- Row 1 -->
<rect class="cell alt" x="0" y="40" width="40" height="40"/><text class="val" x="20" y="64">0.45</text>
<rect class="cell" x="40" y="40" width="40" height="40"/><text class="val" x="60" y="64">0.11</text>
<rect class="cell alt" x="80" y="40" width="40" height="40"/><text class="val" x="100" y="64">0.83</text>
<rect class="cell" x="120" y="40" width="40" height="40"/><text class="val" x="140" y="64">0.29</text>
<rect class="cell alt" x="160" y="40" width="40" height="40"/><text class="val" x="180" y="64">0.62</text>
<rect class="cell" x="200" y="40" width="40" height="40"/><text class="val" x="220" y="64">0.78</text>
<rect class="cell alt" x="240" y="40" width="40" height="40"/><text class="val" x="260" y="64">0.06</text>
<rect class="cell" x="280" y="40" width="40" height="40"/><text class="val" x="300" y="64">0.94</text>
<rect class="cell alt" x="320" y="40" width="40" height="40"/><text class="val" x="340" y="64">0.19</text>

<!-- Row 2 -->
<rect class="cell" x="0" y="80" width="40" height="40"/><text class="val" x="20" y="104">0.73</text>
<rect class="cell alt" x="40" y="80" width="40" height="40"/><text class="val" x="60" y="104">0.52</text>
<rect class="cell" x="80" y="80" width="40" height="40"/><text class="val" x="100" y="104">0.08</text>
<rect class="cell alt" x="120" y="80" width="40" height="40"/><text class="val" x="140" y="104">0.40</text>
<rect class="cell" x="160" y="80" width="40" height="40"/><text class="val" x="180" y="104">0.98</text>
<rect class="cell alt" x="200" y="80" width="40" height="40"/><text class="val" x="220" y="104">0.14</text>
<rect class="cell" x="240" y="80" width="40" height="40"/><text class="val" x="260" y="104">0.67</text>
<rect class="cell alt" x="280" y="80" width="40" height="40"/><text class="val" x="300" y="104">0.23</text>
<rect class="cell" x="320" y="80" width="40" height="40"/><text class="val" x="340" y="104">0.01</text>

<!-- Row 3 -->
<rect class="cell alt" x="0" y="120" width="40" height="40"/><text class="val" x="20" y="144">0.92</text>
<rect class="cell" x="40" y="120" width="40" height="40"/><text class="val" x="60" y="144">0.35</text>
<rect class="cell alt" x="80" y="120" width="40" height="40"/><text class="val" x="100" y="144">0.47</text>
<rect class="cell" x="120" y="120" width="40" height="40"/><text class="val" x="140" y="144">0.16</text>
<rect class="cell alt" x="160" y="120" width="40" height="40"/><text class="val" x="180" y="144">0.86</text>
<rect class="cell" x="200" y="120" width="40" height="40"/><text class="val" x="220" y="144">0.09</text>
<rect class="cell alt" x="240" y="120" width="40" height="40"/><text class="val" x="260" y="144">0.65</text>
<rect class="cell" x="280" y="120" width="40" height="40"/><text class="val" x="300" y="144">0.27</text>
<rect class="cell alt" x="320" y="120" width="40" height="40"/><text class="val" x="340" y="144">0.58</text>

<!-- Row 4 -->
<rect class="cell" x="0" y="160" width="40" height="40"/><text class="val" x="20" y="184">0.36</text>
<rect class="cell alt" x="40" y="160" width="40" height="40"/><text class="val" x="60" y="184">0.87</text>
<rect class="cell" x="80" y="160" width="40" height="40"/><text class="val" x="100" y="184">0.15</text>
<rect class="cell alt" x="120" y="160" width="40" height="40"/><text class="val" x="140" y="184">0.94</text>
<rect class="cell" x="160" y="160" width="40" height="40"/><text class="val" x="180" y="184">0.53</text>
<rect class="cell alt" x="200" y="160" width="40" height="40"/><text class="val" x="220" y="184">0.10</text>
<rect class="cell" x="240" y="160" width="40" height="40"/><text class="val" x="260" y="184">0.62</text>
<rect class="cell alt" x="280" y="160" width="40" height="40"/><text class="val" x="300" y="184">0.50</text>
<rect class="cell" x="320" y="160" width="40" height="40"/><text class="val" x="340" y="184">0.80</text>

<!-- Row 5 -->
<rect class="cell alt" x="0" y="200" width="40" height="40"/><text class="val" x="20" y="224">0.61</text>
<rect class="cell" x="40" y="200" width="40" height="40"/><text class="val" x="60" y="224">0.04</text>
<rect class="cell alt" x="80" y="200" width="40" height="40"/><text class="val" x="100" y="224">0.97</text>
<rect class="cell" x="120" y="200" width="40" height="40"/><text class="val" x="140" y="224">0.42</text>
<rect class="cell alt" x="160" y="200" width="40" height="40"/><text class="val" x="180" y="224">0.88</text>
<rect class="cell" x="200" y="200" width="40" height="40"/><text class="val" x="220" y="224">0.02</text>
<rect class="cell alt" x="240" y="200" width="40" height="40"/><text class="val" x="260" y="224">0.11</text>
<rect class="cell" x="280" y="200" width="40" height="40"/><text class="val" x="300" y="224">0.34</text>
<rect class="cell alt" x="320" y="200" width="40" height="40"/><text class="val" x="340" y="224">0.90</text>

<!-- Row 6 -->
<rect class="cell" x="0" y="240" width="40" height="40"/><text class="val" x="20" y="264">0.70</text>
<rect class="cell alt" x="40" y="240" width="40" height="40"/><text class="val" x="60" y="264">0.21</text>
<rect class="cell" x="80" y="240" width="40" height="40"/><text class="val" x="100" y="264">0.60</text>
<rect class="cell alt" x="120" y="240" width="40" height="40"/><text class="val" x="140" y="264">0.49</text>
<rect class="cell" x="160" y="240" width="40" height="40"/><text class="val" x="180" y="264">0.05</text>
<rect class="cell alt" x="200" y="240" width="40" height="40"/><text class="val" x="220" y="264">0.74</text>
<rect class="cell" x="240" y="240" width="40" height="40"/><text class="val" x="260" y="264">0.17</text>
<rect class="cell alt" x="280" y="240" width="40" height="40"/><text class="val" x="300" y="264">0.98</text>
<rect class="cell" x="320" y="240" width="40" height="40"/><text class="val" x="340" y="264">0.82</text>

<!-- Row 7 -->
<rect class="cell alt" x="0" y="280" width="40" height="40"/><text class="val" x="20" y="304">0.85</text>
<rect class="cell" x="40" y="280" width="40" height="40"/><text class="val" x="60" y="304">0.31</text>
<rect class="cell alt" x="80" y="280" width="40" height="40"/><text class="val" x="100" y="304">0.64</text>
<rect class="cell" x="120" y="280" width="40" height="40"/><text class="val" x="140" y="304">0.33</text>
<rect class="cell alt" x="160" y="280" width="40" height="40"/><text class="val" x="180" y="304">0.12</text>
<rect class="cell" x="200" y="280" width="40" height="40"/><text class="val" x="220" y="304">0.38</text>
<rect class="cell alt" x="240" y="280" width="40" height="40"/><text class="val" x="260" y="304">0.29</text>
<rect class="cell" x="280" y="280" width="40" height="40"/><text class="val" x="300" y="304">0.95</text>
<rect class="cell alt" x="320" y="280" width="40" height="40"/><text class="val" x="340" y="304">0.43</text>

<!-- Row 8 -->
<rect class="cell" x="0" y="320" width="40" height="40"/><text class="val" x="20" y="344">0.66</text>
<rect class="cell alt" x="40" y="320" width="40" height="40"/><text class="val" x="60" y="344">0.44</text>
<rect class="cell" x="80" y="320" width="40" height="40"/><text class="val" x="100" y="344">0.02</text>
<rect class="cell alt" x="120" y="320" width="40" height="40"/><text class="val" x="140" y="344">0.57</text>
<rect class="cell" x="160" y="320" width="40" height="40"/><text class="val" x="180" y="344">0.77</text>
<rect class="cell alt" x="200" y="320" width="40" height="40"/><text class="val" x="220" y="344">0.35</text>
<rect class="cell" x="240" y="320" width="40" height="40"/><text class="val" x="260" y="344">0.63</text>
<rect class="cell alt" x="280" y="320" width="40" height="40"/><text class="val" x="300" y="344">0.25</text>
<rect class="cell" x="320" y="320" width="40" height="40"/><text class="val" x="340" y="344">0.81</text>

  </g>

  <!-- 3x3 kernel overlay -->
  <rect class="kernel" width="120" height="120" x="0" y="0">
    <animate attributeName="x"
             values="0;40;80;120;160;200;240"
             dur="3.5s"
             repeatCount="indefinite"
             calcMode="discrete"/>
    <animate attributeName="y"
             values="0;0;0;0;0;0;0;
                     40;40;40;40;40;40;40;
                     80;80;80;80;80;80;80;
                     120;120;120;120;120;120;120;
                     160;160;160;160;160;160;160;
                     200;200;200;200;200;200;200;
                     240;240;240;240;240;240;240"
             dur="24.5s"
             repeatCount="indefinite"
             calcMode="discrete"/>
  </rect>
</svg>
